<?xml version="1.0" encoding="UTF-8"?>
<svg version="1.1" xmlns="http://www.w3.org/2000/svg" width="942" height="265">
<path d="M0 0 C9.24 0 18.48 0 28 0 C30.77539634 6.79511244 33.55057162 13.59031433 36.32519531 20.38574219 C37.26777566 22.69406268 38.21048201 25.00233173 39.15332031 27.31054688 C40.5140092 30.64178944 41.87423431 33.97322107 43.234375 37.3046875 C43.85962067 38.834991 43.85962067 38.834991 44.49749756 40.39620972 C47.02445776 46.58716681 49.52585561 52.78774384 52 59 C55.33876511 51.80826366 58.44985987 44.56413219 61.35546875 37.1875 C62.15036336 35.18618709 62.94528603 33.18488532 63.74023438 31.18359375 C64.97229819 28.07218175 66.20318871 24.96030937 67.43334961 21.84814453 C68.63367279 18.81427734 69.83813621 15.78207861 71.04296875 12.75 C71.59454903 11.34850708 71.59454903 11.34850708 72.15727234 9.91870117 C72.50135635 9.05349854 72.84544037 8.1882959 73.19995117 7.296875 C73.6503199 6.15750488 73.6503199 6.15750488 74.10978699 4.99511719 C75 3 75 3 77 0 C85.91 0 94.82 0 104 0 C104 30.03 104 60.06 104 91 C96.41 91 88.82 91 81 91 C79.8239997 88.6479994 79.87915459 87.26265599 79.88647461 84.64208984 C79.88658791 83.29091568 79.88658791 83.29091568 79.88670349 81.91244507 C79.89186478 80.93844757 79.89702606 79.96445007 79.90234375 78.9609375 C79.9037587 77.96494537 79.90517365 76.96895325 79.90663147 75.94277954 C79.91224064 72.75348947 79.9247947 69.56426894 79.9375 66.375 C79.94251382 64.21614685 79.94707693 62.05729259 79.95117188 59.8984375 C79.96221305 54.5989345 79.97896012 49.29947222 80 44 C77.91826291 49.40754626 75.83697957 54.81526687 73.75610352 60.22314453 C73.04919484 62.06010577 72.3421655 63.89702058 71.63500977 65.73388672 C70.614423 68.38496693 69.59428048 71.03621773 68.57421875 73.6875 C68.26159592 74.49928711 67.94897308 75.31107422 67.62687683 76.14746094 C67.32679214 76.92766602 67.02670746 77.70787109 66.7175293 78.51171875 C66.45771774 79.18678467 66.19790619 79.86185059 65.93022156 80.55737305 C64.60656397 84.03310598 63.30591436 87.5175617 62 91 C55.4 91 48.8 91 42 91 C41.10796875 88.58945313 40.2159375 86.17890625 39.296875 83.6953125 C38.42006916 81.32866098 37.54281888 78.96217464 36.66552734 76.59570312 C36.06187366 74.96664306 35.45867311 73.337415 34.85595703 71.70800781 C33.98332516 69.34915217 33.10899755 66.99093066 32.234375 64.6328125 C31.97066101 63.91884308 31.70694702 63.20487366 31.4352417 62.4692688 C29.38057888 56.93702509 27.19382712 51.48456781 25 46 C24.67 60.85 24.34 75.7 24 91 C16.08 91 8.16 91 0 91 C0 60.97 0 30.94 0 0 Z " fill="#000000" transform="translate(296,90)"/>
<path d="M0 0 C2.5 1.875 2.5 1.875 3.5 2.875 C3.83 0.565 4.16 -1.745 4.5 -4.125 C12.42 -4.125 20.34 -4.125 28.5 -4.125 C28.5 19.965 28.5 44.055 28.5 68.875 C20.58 68.875 12.66 68.875 4.5 68.875 C4.17 66.895 3.84 64.915 3.5 62.875 C2.84 62.875 2.18 62.875 1.5 62.875 C1.5 63.535 1.5 64.195 1.5 64.875 C-7.75431953 70.78201247 -15.87650132 71.65860789 -26.55859375 69.44921875 C-34.1337524 67.20867887 -40.99441682 60.89834644 -45 54.1875 C-50.01333171 43.11639247 -51.1866506 29.58553721 -47.5 17.875 C-43.33514133 7.66816326 -38.31853113 1.92148106 -28.5 -3.125 C-18.7116447 -6.90296169 -8.77306675 -5.73704126 0 0 Z M-22.8125 21.875 C-25.67678121 26.96705549 -26.01470134 31.15609619 -25.5 36.875 C-23.73289586 42.76534713 -21.33010768 45.38087955 -16.5 48.875 C-13.28360522 50.48319739 -9.98855833 50.34361231 -6.5 49.875 C-1.20887796 47.12768663 2.59375244 43.59374267 4.5 37.875 C5.23758332 31.06746867 4.63976722 25.47206846 0.5 19.875 C-2.88594765 16.72528126 -5.4673041 15.62794941 -10 15.4375 C-15.74974341 15.73706646 -19.23902952 17.2391464 -22.8125 21.875 Z " fill="#000000" transform="translate(874.5,112.125)"/>
<path d="M0 0 C1.64613422 1.17058434 3.2346548 2.42150563 4.80859375 3.6875 C5.13859375 1.3775 5.46859375 -0.9325 5.80859375 -3.3125 C13.39859375 -3.3125 20.98859375 -3.3125 28.80859375 -3.3125 C28.80859375 20.7775 28.80859375 44.8675 28.80859375 69.6875 C21.21859375 69.6875 13.62859375 69.6875 5.80859375 69.6875 C5.31359375 66.2225 5.31359375 66.2225 4.80859375 62.6875 C3.96296875 63.450625 3.11734375 64.21375 2.24609375 65 C-4.21081516 70.32544123 -11.41128265 72.11223752 -19.63671875 71.5078125 C-27.94591349 70.23147851 -35.28968173 66.51730901 -40.56640625 59.875 C-48.27060422 48.46056505 -50.08587517 35.62534269 -47.5078125 22.1015625 C-44.61559005 11.80477054 -39.61432603 4.05054477 -30.19140625 -1.3125 C-20.0774924 -5.58031397 -9.6336538 -5.76988891 0 0 Z M-22.00390625 22.75 C-25.16249872 27.90349298 -24.74239499 33.85305756 -24.19140625 39.6875 C-22.72118572 44.05245526 -20.20517856 47.35692253 -16.19140625 49.6875 C-12.46088058 50.93100856 -9.06588582 51.20948871 -5.19140625 50.6875 C-0.37352149 48.27855762 2.40256486 45.49955778 4.80859375 40.6875 C6.15574607 34.73839669 6.31257788 29.3486815 3.80859375 23.6875 C0.67803648 19.7340534 -2.03951551 17.05371969 -7.2421875 16.44921875 C-13.78616224 16.23447692 -17.55568563 17.68823171 -22.00390625 22.75 Z " fill="#000000" transform="translate(458.19140625,111.3125)"/>
<path d="M0 0 C7.59 0 15.18 0 23 0 C23.33 9.9 23.66 19.8 24 30 C26.97 28.02 29.94 26.04 33 24 C42.20855737 21.69786066 52.63281861 21.47726206 60.94921875 26.453125 C68.40447601 32.07651905 71.41128228 38.98008578 73 48 C73.08218725 49.656353 73.11790108 51.31549194 73.11352539 52.97387695 C73.11341209 54.41480461 73.11341209 54.41480461 73.11329651 55.88484192 C73.10813522 56.9089769 73.10297394 57.93311188 73.09765625 58.98828125 C73.0962413 60.04661667 73.09482635 61.10495209 73.09336853 62.19535828 C73.08778159 65.56776789 73.07523144 68.94011054 73.0625 72.3125 C73.05748331 74.60221258 73.0529207 76.89192621 73.04882812 79.18164062 C73.03866835 84.78780682 73.01909025 90.39382866 73 96 C65.41 96 57.82 96 50 96 C49.96261719 93.133125 49.92523437 90.26625 49.88671875 87.3125 C49.84042051 84.51571306 49.78921709 81.71905557 49.73754883 78.92236328 C49.70442963 76.98852498 49.67635776 75.05459304 49.65356445 73.12060547 C49.61977815 70.33000021 49.5674517 67.54024309 49.51171875 64.75 C49.50532883 63.89446533 49.4989389 63.03893066 49.49235535 62.1574707 C49.34256776 55.95044983 48.54656927 49.92383879 44.3125 45.0625 C39.58189461 42.8889786 35.25625788 42.89702804 30.1875 43.3125 C26.93106204 44.62968844 26.93106204 44.62968844 26.05046082 47.00265503 C24.29461399 53.07299101 23.53596655 58.63785076 23.48828125 64.9453125 C23.47033005 65.84120087 23.45237885 66.73708923 23.43388367 67.66012573 C23.3803168 70.48170459 23.34605932 73.3031197 23.3125 76.125 C23.27927943 78.05471004 23.24478549 79.98439861 23.20898438 81.9140625 C23.12225794 86.60939154 23.06173329 91.30401213 23 96 C15.41 96 7.82 96 0 96 C0 64.32 0 32.64 0 0 Z " fill="#000000" transform="translate(554,85)"/>
<path d="M0 0 C8.31766464 7.27795656 12.4340432 16.20988048 13.3046875 27.2421875 C13.3388957 30.11909701 13.33217297 32.91610897 13.03125 35.77734375 C12.03125 36.77734375 12.03125 36.77734375 10.05076599 36.89759827 C9.18250687 36.89537766 8.31424774 36.89315704 7.41967773 36.89086914 C6.43873642 36.89079361 5.4577951 36.89071808 4.4471283 36.89064026 C3.3804744 36.88547897 2.3138205 36.88031769 1.21484375 36.875 C-0.41444313 36.87287758 -0.41444313 36.87287758 -2.0766449 36.87071228 C-5.56154075 36.86509423 -9.04637342 36.85253867 -12.53125 36.83984375 C-14.88736887 36.83483108 -17.24348874 36.83026777 -19.59960938 36.82617188 C-25.38934464 36.81511894 -31.17904281 36.79836326 -36.96875 36.77734375 C-36.52062748 38.07166908 -36.0630799 39.36273391 -35.6015625 40.65234375 C-35.34777832 41.37164062 -35.09399414 42.0909375 -34.83251953 42.83203125 C-34.02970017 44.9787248 -34.02970017 44.9787248 -31.84375 46.77734375 C-26.85466694 48.51267699 -22.11769782 48.32601128 -17.03125 47.02734375 C-14.51108237 45.75054285 -14.51108237 45.75054285 -12.96875 41.77734375 C-5.04875 41.77734375 2.87125 41.77734375 11.03125 41.77734375 C9.52278272 50.82814742 5.53063681 56.13030255 -1.453125 62.015625 C-10.23988772 68.16908771 -21.0788589 69.68124484 -31.53125 68.15234375 C-40.53668868 66.21251316 -48.32991185 62.18551122 -53.96875 54.77734375 C-60.26330078 44.68262535 -62.54815267 33.71084013 -60.46875 21.94921875 C-58.91707497 15.63672261 -56.4048894 10.2778831 -52.96875 4.77734375 C-52.30875 4.77734375 -51.64875 4.77734375 -50.96875 4.77734375 C-50.96875 4.11734375 -50.96875 3.45734375 -50.96875 2.77734375 C-50.30875 2.77734375 -49.64875 2.77734375 -48.96875 2.77734375 C-48.96875 2.11734375 -48.96875 1.45734375 -48.96875 0.77734375 C-33.39907339 -8.10992263 -15.58463927 -11.54731424 0 0 Z M-34.84375 16.15234375 C-36.38788404 18.15306563 -36.38788404 18.15306563 -36.96875 22.77734375 C-28.38875 22.77734375 -19.80875 22.77734375 -10.96875 22.77734375 C-12.97504931 16.32407012 -12.97504931 16.32407012 -17.96875 12.77734375 C-24.82235937 11.11921245 -29.06070285 11.9114425 -34.84375 16.15234375 Z " fill="#000000" transform="translate(696.96875,114.22265625)"/>
<path d="M0 0 C6.300289 5.32899445 8.6631505 10.39647319 9.41625977 18.4909668 C9.46451904 19.09207275 9.51277832 19.69317871 9.5625 20.3125 C6.14647985 20.48696934 2.73160363 20.59339623 -0.6875 20.6875 C-2.13962891 20.76291016 -2.13962891 20.76291016 -3.62109375 20.83984375 C-6.3503451 20.89631102 -8.76661931 20.88515686 -11.4375 20.3125 C-13.984375 17.3515625 -13.984375 17.3515625 -15.4375 14.3125 C-18.61892452 12.72178774 -21.97413534 12.91587746 -25.4375 13.3125 C-27.52734231 14.39924994 -27.52734231 14.39924994 -28.4375 16.3125 C-28.4375 17.6325 -28.4375 18.9525 -28.4375 20.3125 C-27.52484375 20.55033203 -27.52484375 20.55033203 -26.59375 20.79296875 C-23.53412067 21.60737009 -20.48531666 22.45487446 -17.4375 23.3125 C-16.78458984 23.49474121 -16.13167969 23.67698242 -15.45898438 23.86474609 C2.25201737 28.86948384 2.25201737 28.86948384 7.9375 36.5 C10.50452249 41.64520594 11.40418612 47.18835918 9.8984375 52.77734375 C7.02746838 59.79137807 2.72846574 64.2929259 -4.1484375 67.4609375 C-15.12418648 71.54406596 -26.58480513 71.17284299 -37.25390625 66.41015625 C-44.05022738 62.99375869 -48.98126978 58.68378236 -52.3125 51.75 C-53.4375 48.3125 -53.4375 48.3125 -52.4375 43.3125 C-45.1775 43.3125 -37.9175 43.3125 -30.4375 43.3125 C-29.4475 45.2925 -28.4575 47.2725 -27.4375 49.3125 C-24.09427249 51.93932161 -20.5512573 51.61168235 -16.4375 51.3125 C-15.4475 50.6525 -14.4575 49.9925 -13.4375 49.3125 C-13.18719023 46.72869823 -13.18719023 46.72869823 -13.4375 44.3125 C-14.97857422 43.84070313 -14.97857422 43.84070313 -16.55078125 43.359375 C-43.31598005 35.12093994 -43.31598005 35.12093994 -49.3125 28.125 C-52.01453322 21.36991695 -51.90822903 15.22639611 -49.51953125 8.41796875 C-46.8641251 3.25095102 -43.75449792 0.57262622 -38.5625 -1.9375 C-37.55445313 -2.43765625 -36.54640625 -2.9378125 -35.5078125 -3.453125 C-24.52452755 -7.86879681 -9.80648675 -6.77774131 0 0 Z " fill="#000000" transform="translate(769.4375,112.6875)"/>
<path d="M0 0 C7.92 0 15.84 0 24 0 C24 5.61 24 11.22 24 17 C28.62 17 33.24 17 38 17 C38 23.6 38 30.2 38 37 C33.38 37 28.76 37 24 37 C24.33 47.56 24.66 58.12 25 69 C28.3 69.33 31.6 69.66 35 70 C35.99 70.33 36.98 70.66 38 71 C38 77.27 38 83.54 38 90 C34.68659656 90.10893381 31.37684708 90.18775874 28.0625 90.25 C27.13630859 90.28351563 26.21011719 90.31703125 25.25585938 90.3515625 C17.24367445 90.46401422 11.0616814 88.86200653 5.125 83.3125 C-0.9470055 73.84731496 -0.36524934 64.23102102 -0.1875 53.4375 C-0.17242639 51.84050741 -0.15874272 50.24350106 -0.14648438 48.64648438 C-0.11368925 44.76397876 -0.06205574 40.88214367 0 37 C-2.97 37 -5.94 37 -9 37 C-9 30.4 -9 23.8 -9 17 C-6.03 17 -3.06 17 0 17 C0 11.39 0 5.78 0 0 Z " fill="#000000" transform="translate(505,91)"/>
<path d="M0 0 C3.16438815 1.77774615 5.288316 3.70222329 7.0625 6.9375 C6.96054701 10.30194857 5.83571778 12.18905715 4 15 C-4.60197587 22.50385129 -15.9967819 25.77431745 -27 28 C-28.00933594 28.20625 -29.01867187 28.4125 -30.05859375 28.625 C-37.66043683 29.93912413 -45.17195397 30.23254603 -52.875 30.3125 C-53.84993408 30.33014404 -54.82486816 30.34778809 -55.8293457 30.3659668 C-61.95044309 30.3601996 -66.40757361 29.50072904 -72 27 C-73.093125 26.525625 -74.18625 26.05125 -75.3125 25.5625 C-78.08992074 23.9477205 -79.53099234 22.85160311 -81 20 C-81 15.80621581 -77.69771973 12.89511385 -75 10 C-74.34 10 -73.68 10 -73 10 C-73 9.34 -73 8.68 -73 8 C-69.27034861 5.96564469 -67.33094958 5 -63 5 C-63 4.34 -63 3.68 -63 3 C-62.28972656 2.86722656 -61.57945312 2.73445313 -60.84765625 2.59765625 C-59.92855469 2.42105469 -59.00945312 2.24445313 -58.0625 2.0625 C-57.14597656 1.88847656 -56.22945312 1.71445313 -55.28515625 1.53515625 C-53.04710156 1.22285012 -53.04710156 1.22285012 -52 0 C-49.37420067 -0.37595337 -46.7601612 -0.7066951 -44.125 -1 C-12.09202395 -4.60300609 -12.09202395 -4.60300609 0 0 Z " fill="#2F6962" transform="translate(247,114)"/>
<path d="M0 0 C4.06210408 0.74610075 5.4490747 2.44090867 8.0625 5.5625 C10.0625 8.5625 10.0625 8.5625 10.0625 11.5625 C10.7225 11.5625 11.3825 11.5625 12.0625 11.5625 C12.26166016 12.84447266 12.26166016 12.84447266 12.46484375 14.15234375 C12.64144531 15.25707031 12.81804687 16.36179688 13 17.5 C13.17402344 18.60214844 13.34804687 19.70429688 13.52734375 20.83984375 C13.78095136 23.46676929 13.78095136 23.46676929 15.0625 24.5625 C15.17608625 27.12363124 15.22668775 29.65670414 15.23046875 32.21875 C15.23379715 32.99504761 15.23712555 33.77134521 15.24055481 34.57116699 C15.24563145 36.22224331 15.24796291 37.87332995 15.24780273 39.52441406 C15.2499669 42.02426754 15.26805169 44.52366353 15.28710938 47.0234375 C15.2900478 48.63020683 15.29202959 50.23697825 15.29296875 51.84375 C15.30015427 52.58161743 15.30733978 53.31948486 15.31474304 54.07971191 C15.29465707 58.75964502 14.67303286 63.00759815 13.55293274 67.55236816 C12.90702053 70.19976215 12.47666895 72.87040185 12.0625 75.5625 C11.4025 75.5625 10.7425 75.5625 10.0625 75.5625 C10.0625 76.8825 10.0625 78.2025 10.0625 79.5625 C9.4025 79.5625 8.7425 79.5625 8.0625 79.5625 C7.98 80.14 7.8975 80.7175 7.8125 81.3125 C6.79401664 84.36795009 5.65903964 85.64926027 3.0625 87.5625 C-0.4375 88.125 -0.4375 88.125 -3.9375 87.5625 C-6.375 85.1875 -6.375 85.1875 -7.9375 82.5625 C-7.9375 81.9025 -7.9375 81.2425 -7.9375 80.5625 C-8.5975 80.5625 -9.2575 80.5625 -9.9375 80.5625 C-14.95044346 67.57441923 -15.11956624 54.40855081 -15.125 40.6875 C-15.12599701 39.99999664 -15.12699402 39.31249329 -15.12802124 38.60415649 C-15.12607675 26.75107675 -15.12607675 26.75107675 -13.9375 25.5625 C-13.81375 24.5725 -13.69 23.5825 -13.5625 22.5625 C-12.98671505 18.02229411 -11.48397006 13.85176602 -9.9375 9.5625 C-9.2775 9.5625 -8.6175 9.5625 -7.9375 9.5625 C-7.855 8.82 -7.7725 8.0775 -7.6875 7.3125 C-6.46783421 2.84039211 -4.57806959 0.87665162 0 0 Z " fill="#2E6962" transform="translate(132.9375,170.4375)"/>
<path d="M0 0 C4.44432032 4.04926963 5.69504258 6.90085161 6 13 C6.25385135 20.05948505 5.74720914 26.98157126 5 34 C4.34 34 3.68 34 3 34 C3.061875 34.94875 3.12375 35.8975 3.1875 36.875 C3.1875 41.87106907 1.57839351 46.30747874 0 51 C-0.42925781 52.30710937 -0.42925781 52.30710937 -0.8671875 53.640625 C-1.56827567 55.7639206 -2.27911539 57.88336009 -3 60 C-3.66 60 -4.32 60 -5 60 C-5.33 61.98 -5.66 63.96 -6 66 C-6.66 66 -7.32 66 -8 66 C-8.12375 66.763125 -8.2475 67.52625 -8.375 68.3125 C-9 71 -9 71 -11 74 C-11.66 74 -12.32 74 -13 74 C-13.268125 74.804375 -13.53625 75.60875 -13.8125 76.4375 C-14.204375 77.283125 -14.59625 78.12875 -15 79 C-16.485 79.495 -16.485 79.495 -18 80 C-18 80.66 -18 81.32 -18 82 C-22.07369424 84.03684712 -24.58937864 84.0257259 -29 83 C-29 82.34 -29 81.68 -29 81 C-29.66 81 -30.32 81 -31 81 C-36.89247222 70.82646634 -33.85188836 55.81108007 -31 45 C-17.90954659 -2.86552746 -17.90954659 -2.86552746 0 0 Z " fill="#2E6961" transform="translate(170,22)"/>
<path d="M0 0 C2.08626488 1.86775335 3.38988575 3.65801563 5 6 C5 6.66 5 7.32 5 8 C5.66 8 6.32 8 7 8 C14.38152111 22.30645328 20.17807553 35.90633386 22 52 C22.33 52.33 22.66 52.66 23 53 C23.28048753 56.38752444 23.2318666 59.78975327 23.25 63.1875 C23.270625 64.13431641 23.29125 65.08113281 23.3125 66.05664062 C23.34270135 71.46645703 23.08697354 75.34727787 20 80 C17.02709168 82.64258518 15.67087505 83.03797406 11.6875 82.8125 C2.3589119 79.40009439 -2.36245453 67.14998482 -6.3125 58.75390625 C-13.70966542 42.52257196 -19.00117499 19.49005546 -13 2 C-9.11241022 -2.8293721 -5.44086378 -2.15758391 0 0 Z " fill="#2E6961" transform="translate(109,23)"/>
<path d="M0 0 C2.62312408 2.62312408 2.29837439 3.84617471 2.3125 7.5 C2.23389277 13.41698081 1.05299508 18.47646561 -1 24 C-1.66 24 -2.32 24 -3 24 C-3.0928125 25.175625 -3.0928125 25.175625 -3.1875 26.375 C-4.3032335 31.35288793 -6.60306227 35.52453694 -9 40 C-9.66 40 -10.32 40 -11 40 C-11.33 41.65 -11.66 43.3 -12 45 C-12.66 45 -13.32 45 -14 45 C-14.38671875 45.82757813 -14.38671875 45.82757813 -14.78125 46.671875 C-16.17963125 49.34314175 -17.78763305 51.76851909 -19.5 54.25 C-20.1084375 55.14203125 -20.716875 56.0340625 -21.34375 56.953125 C-22.16359375 57.96632813 -22.16359375 57.96632813 -23 59 C-23.66 59 -24.32 59 -25 59 C-25.33 59.99 -25.66 60.98 -26 62 C-26.66 62 -27.32 62 -28 62 C-28 62.66 -28 63.32 -28 64 C-30.0625 65.8125 -30.0625 65.8125 -33 68 C-33.50789063 68.45246094 -34.01578125 68.90492188 -34.5390625 69.37109375 C-38.82706645 72.95797857 -42.23059474 73.55781148 -47.765625 73.56640625 C-50 73 -50 73 -51.76953125 71.28515625 C-54.34715093 66.49814827 -53.7214309 60.76321648 -52.37890625 55.62109375 C-51.38136811 53.00089358 -50.23231736 50.51940438 -49 48 C-48.69964844 47.37867188 -48.39929688 46.75734375 -48.08984375 46.1171875 C-44.61254345 38.94440336 -41.00553909 31.89346124 -37 25 C-36.34 25 -35.68 25 -35 25 C-34.77699219 24.29746094 -34.55398437 23.59492188 -34.32421875 22.87109375 C-32.70718881 19.36514389 -30.43795106 16.83153386 -27.8125 14.0625 C-27.31999756 13.53470947 -26.82749512 13.00691895 -26.32006836 12.46313477 C-22.75389095 8.68570613 -19.06913936 5.23870276 -15 2 C-13.948125 1.1028125 -13.948125 1.1028125 -12.875 0.1875 C-8.28950149 -2.71664906 -4.85528182 -2.05000788 0 0 Z " fill="#2E6961" transform="translate(117,166)"/>
<path d="M0 0 C1.99488234 0.36270588 3.9937811 0.70640699 6 1 C6 1.66 6 2.32 6 3 C8.64 3.33 11.28 3.66 14 4 C14 4.66 14 5.32 14 6 C16.97 6.495 16.97 6.495 20 7 C20 7.66 20 8.32 20 9 C20.7425 9.226875 21.485 9.45375 22.25 9.6875 C25.67358029 11.3214815 27.10082911 12.71297346 29 16 C28.75 19.8125 28.75 19.8125 28 23 C26.515 23.495 26.515 23.495 25 24 C25 24.66 25 25.32 25 26 C17.98474614 29.4216335 11.21815534 29.46047288 3.54858398 29.39111328 C1.46594805 29.37521714 -0.61469361 29.39091657 -2.69726562 29.41015625 C-14.92099486 29.42951434 -26.67284833 27.89189142 -37.94921875 22.8671875 C-39.9513955 22.02055276 -41.88086785 21.46879221 -44 21 C-44 20.34 -44 19.68 -44 19 C-44.721875 18.896875 -45.44375 18.79375 -46.1875 18.6875 C-50.15522273 17.71761222 -52.88125158 16.08017089 -55.8125 13.25 C-57.53906063 9.97862196 -57.4548997 7.63919761 -57 4 C-53.96053069 -0.01644159 -50.62355141 -1.64662726 -45.76953125 -2.703125 C-30.8474515 -4.76540651 -14.44160818 -4.66837794 0 0 Z " fill="#2E6961" transform="translate(72,113)"/>
<path d="M0 0 C2.72523894 1.60976124 3.80522164 3.22008536 4.96875 6.12890625 C4.75545161 11.56801507 2.44070853 14.75685395 -1.32421875 18.43359375 C-2.87643816 19.81615786 -4.4459926 21.17959562 -6.03515625 22.51953125 C-8.12043093 24.224073 -8.12043093 24.224073 -9.7109375 25.93359375 C-11.29647185 27.45056445 -12.73839029 28.25704029 -14.71875 29.19140625 C-15.78029297 29.69994141 -15.78029297 29.69994141 -16.86328125 30.21875 C-17.61996094 30.58097656 -18.37664062 30.94320312 -19.15625 31.31640625 C-20.73993882 32.12821313 -22.32325741 32.94074258 -23.90625 33.75390625 C-36.51886974 40.02164542 -48.4118547 44.50702882 -62.59375 44.75390625 C-63.36348145 44.77622314 -64.13321289 44.79854004 -64.92626953 44.8215332 C-68.82918332 44.80569554 -70.75034239 44.56811136 -74.1484375 42.4609375 C-76.15625 40.31640625 -76.15625 40.31640625 -76.84375 37.56640625 C-75.25393065 30.0508966 -69.05695495 24.80938835 -63.15625 20.31640625 C-62.41503906 19.75050781 -61.67382812 19.18460938 -60.91015625 18.6015625 C-52.16783553 12.20917759 -40.31046178 4.31640625 -29.15625 4.31640625 C-29.15625 3.65640625 -29.15625 2.99640625 -29.15625 2.31640625 C-28.31320313 2.18363281 -27.47015625 2.05085937 -26.6015625 1.9140625 C-25.50585938 1.73746094 -24.41015625 1.56085938 -23.28125 1.37890625 C-21.64542969 1.11787109 -21.64542969 1.11787109 -19.9765625 0.8515625 C-5.79937238 -1.83856914 -5.79937238 -1.83856914 0 0 Z " fill="#2E6961" transform="translate(99.15625,146.68359375)"/>
<path d="M0 0 C1.13695312 0.4640625 2.27390625 0.928125 3.4453125 1.40625 C4.59773438 1.8703125 5.75015625 2.334375 6.9375 2.8125 C7.80632812 3.1734375 8.67515625 3.534375 9.5703125 3.90625 C9.5703125 4.56625 9.5703125 5.22625 9.5703125 5.90625 C10.27542969 5.99003906 10.98054688 6.07382812 11.70703125 6.16015625 C15.24092065 7.08099237 17.45439462 8.67585831 20.3828125 10.84375 C21.35863281 11.55402344 22.33445313 12.26429687 23.33984375 12.99609375 C24.07589844 13.62644531 24.81195313 14.25679687 25.5703125 14.90625 C25.5703125 15.56625 25.5703125 16.22625 25.5703125 16.90625 C26.1271875 17.15375 26.6840625 17.40125 27.2578125 17.65625 C33.23788987 20.88872425 37.25281085 25.79212504 41.5703125 30.90625 C42.08464844 31.4940625 42.59898438 32.081875 43.12890625 32.6875 C46.5703125 36.66510269 46.5703125 36.66510269 46.5703125 38.90625 C47.2303125 38.90625 47.8903125 38.90625 48.5703125 38.90625 C50.5703125 42.90625 50.5703125 42.90625 52.5703125 46.90625 C52.93640625 47.59332031 53.3025 48.28039062 53.6796875 48.98828125 C54.99046478 51.81105162 54.94685149 53.83118159 54.5703125 56.90625 C53.1328125 59.78125 53.1328125 59.78125 50.5703125 61.90625 C42.07942843 63.41269717 35.05619975 59.48414206 27.5703125 55.90625 C27.5703125 55.24625 27.5703125 54.58625 27.5703125 53.90625 C27.03277344 53.83019531 26.49523437 53.75414062 25.94140625 53.67578125 C22.63918287 52.60405472 20.37680294 50.70797214 17.6328125 48.59375 C16.10333984 47.42392578 16.10333984 47.42392578 14.54296875 46.23046875 C13.07150391 45.07998047 13.07150391 45.07998047 11.5703125 43.90625 C10.62027344 43.19082031 9.67023438 42.47539063 8.69140625 41.73828125 C7.99144531 41.13371094 7.29148437 40.52914062 6.5703125 39.90625 C6.5703125 39.24625 6.5703125 38.58625 6.5703125 37.90625 C5.9103125 37.90625 5.2503125 37.90625 4.5703125 37.90625 C-2.77845203 30.98497593 -13.17413684 19.62419378 -14.828125 9.45703125 C-14.82039063 8.71839844 -14.81265625 7.97976562 -14.8046875 7.21875 C-14.81242187 6.47238281 -14.82015625 5.72601563 -14.828125 4.95703125 C-14.32945719 2.39035871 -13.43901535 1.52841468 -11.4296875 -0.09375 C-7.54902426 -2.03408162 -4.01626838 -1.28081452 0 0 Z " fill="#2E6861" transform="translate(56.4296875,56.09375)"/>
<path d="M0 0 C0 0.66 0 1.32 0 2 C1.65 2.33 3.3 2.66 5 3 C5 3.66 5 4.32 5 5 C5.55171875 5.226875 6.1034375 5.45375 6.671875 5.6875 C9.68692417 7.38725926 11.81230369 9.54804816 14.25 12 C15.14203125 12.886875 16.0340625 13.77375 16.953125 14.6875 C19 17 19 17 19 19 C19.66 19 20.32 19 21 19 C22.33203125 20.6875 22.33203125 20.6875 23.8125 23 C24.33714844 23.81726563 24.86179688 24.63453125 25.40234375 25.4765625 C25.92957031 26.30929688 26.45679688 27.14203125 27 28 C27.49628906 28.75023437 27.99257812 29.50046875 28.50390625 30.2734375 C28.95636719 30.96695313 29.40882813 31.66046875 29.875 32.375 C30.28492188 33.00148437 30.69484375 33.62796875 31.1171875 34.2734375 C32 36 32 36 32 39 C32.66 39 33.32 39 34 39 C34.495 42.465 34.495 42.465 35 46 C35.66 46 36.32 46 37 46 C40.3062614 54.56622271 42.33490156 61.75299574 42 71 C41.34 71 40.68 71 40 71 C40 71.99 40 72.98 40 74 C39.34 74 38.68 74 38 74 C38 74.66 38 75.32 38 76 C32.21196811 76.73889769 29.1234646 75.421336 24.4453125 72.00390625 C14.26099118 63.65796881 7.03439599 54.00683416 0 43 C-0.598125 42.07960937 -1.19625 41.15921875 -1.8125 40.2109375 C-3 38 -3 38 -3 35 C-3.66 35 -4.32 35 -5 35 C-8 28.5 -8 28.5 -8 24 C-8.66 24 -9.32 24 -10 24 C-13.00310238 9.3319545 -13.00310238 9.3319545 -11 3 C-7.92569243 -1.1363411 -4.79298957 -0.2357208 0 0 Z " fill="#2E6961" transform="translate(160,165)"/>
<path d="M0 0 C0.98484375 0.3609375 1.9696875 0.721875 2.984375 1.09375 C17.81573187 6.90073629 34.77591735 15.77202432 43 30 C44.0625 32.6875 44.0625 32.6875 44 35 C42.8584081 37.2831838 41.80987317 39.19012683 40 41 C30.9996238 42.63643204 22.59459389 42.04083912 14 39 C12.79085937 38.58363281 11.58171875 38.16726562 10.3359375 37.73828125 C1.61987154 34.63548877 -6.12385542 30.91500548 -14 26 C-15.20492814 25.34783567 -16.41275788 24.70096627 -17.625 24.0625 C-25.47688738 19.26412438 -33.17798737 13.65390664 -37 5 C-37.32674517 1.61693079 -37.38240632 0.5098751 -35.3125 -2.25 C-26.28553633 -9.08121575 -9.44861208 -3.51355424 0 0 Z " fill="#2E6961" transform="translate(200,152)"/>
<path d="M0 0 C2.76785043 0.05729627 4.63213602 0.22974489 7.25 1.1875 C9.61109445 4.57515725 9.10978434 8.25560551 8.6875 12.25 C8.38281191 13.59016941 8.05829452 14.92659518 7.6875 16.25 C7.0275 16.25 6.3675 16.25 5.6875 16.25 C5.56181641 17.06210938 5.56181641 17.06210938 5.43359375 17.890625 C4.42899281 21.06747823 2.71327067 23.31603503 0.75 26 C0.03972656 26.98484375 -0.67054688 27.9696875 -1.40234375 28.984375 C-2.03269531 29.73203125 -2.66304687 30.4796875 -3.3125 31.25 C-3.9725 31.25 -4.6325 31.25 -5.3125 31.25 C-5.6425 32.24 -5.9725 33.23 -6.3125 34.25 C-6.9725 34.25 -7.6325 34.25 -8.3125 34.25 C-8.3125 34.91 -8.3125 35.57 -8.3125 36.25 C-9.6875 37.875 -9.6875 37.875 -11.3125 39.25 C-11.9725 39.25 -12.6325 39.25 -13.3125 39.25 C-13.3125 39.91 -13.3125 40.57 -13.3125 41.25 C-15.63050871 43.12946652 -17.95251818 44.88976326 -20.375 46.625 C-21.36016602 47.34816406 -21.36016602 47.34816406 -22.36523438 48.0859375 C-26.54400188 51.11605857 -30.8019515 53.74352629 -35.3125 56.25 C-36.3025 56.91 -37.2925 57.57 -38.3125 58.25 C-39.3025 58.25 -40.2925 58.25 -41.3125 58.25 C-41.6425 58.91 -41.9725 59.57 -42.3125 60.25 C-45.73482972 61.39077657 -48.39923217 61.34815117 -52 61.3125 C-53.76923828 61.29896484 -53.76923828 61.29896484 -55.57421875 61.28515625 C-56.47785156 61.27355469 -57.38148438 61.26195312 -58.3125 61.25 C-58.3125 60.59 -58.3125 59.93 -58.3125 59.25 C-58.9725 59.25 -59.6325 59.25 -60.3125 59.25 C-60.3125 55.62 -60.3125 51.99 -60.3125 48.25 C-59.6525 48.25 -58.9925 48.25 -58.3125 48.25 C-58.1578125 47.1671875 -58.1578125 47.1671875 -58 46.0625 C-57.24456053 42.97206579 -56.15718685 40.83256159 -54.3125 38.25 C-53.6525 38.25 -52.9925 38.25 -52.3125 38.25 C-52.06113281 37.68410156 -51.80976563 37.11820313 -51.55078125 36.53515625 C-45.34598247 25.08466008 -31.58542406 14.41820373 -20.3125 8.25 C-19.6525 8.25 -18.9925 8.25 -18.3125 8.25 C-18.3125 7.59 -18.3125 6.93 -18.3125 6.25 C-16.92224609 5.72599609 -16.92224609 5.72599609 -15.50390625 5.19140625 C-14.30636719 4.73636719 -13.10882813 4.28132813 -11.875 3.8125 C-10.68003906 3.36003906 -9.48507813 2.90757813 -8.25390625 2.44140625 C-2.33989131 0.04595531 -2.33989131 0.04595531 0 0 Z " fill="#2F6961" transform="translate(218.3125,56.75)"/>
<path d="M0 0 C7.59 0 15.18 0 23 0 C23 24.09 23 48.18 23 73 C15.41 73 7.82 73 0 73 C0 48.91 0 24.82 0 0 Z " fill="#000000" transform="translate(792,108)"/>
<path d="M0 0 C4.38410756 2.19205378 7.13092657 4.43115383 9 9 C9.59554195 13.10262231 9.93026368 15.47588875 7.7578125 19.03515625 C4.81372663 22.60174783 2.77308064 24.72533297 -2.05078125 25.203125 C-7.12182749 25.3082244 -10.68805822 24.97729313 -15 22 C-18.26785002 18.29643664 -18.32535122 14.90921728 -18.30078125 10.18359375 C-17.95926373 7.70426524 -17.33097097 6.11624385 -16 4 C-10.81677777 0.19191836 -6.41392753 -1.15660988 0 0 Z " fill="#010101" transform="translate(808,77)"/>
<path d="M0 0 C0.91523438 -0.020625 1.83046875 -0.04125 2.7734375 -0.0625 C3.65257812 -0.06765625 4.53171875 -0.0728125 5.4375 -0.078125 C6.24058594 -0.0874707 7.04367188 -0.09681641 7.87109375 -0.10644531 C10.47918624 0.33023072 11.34979556 1.24030568 13 3.25 C8.13735378 4.62521185 3.29207624 4.29685968 -1.71289062 4.2109375 C-5.65600719 4.16932149 -9.13081663 4.41763786 -13 5.25 C-14.91620897 5.29188435 -16.83378119 5.29143176 -18.75 5.25 C-20.49959978 5.21257541 -22.25063026 5.20303705 -24 5.25 C-24.33 5.58 -24.66 5.91 -25 6.25 C-24.01 6.25 -23.02 6.25 -22 6.25 C-22.33 6.91 -22.66 7.57 -23 8.25 C-25.97 7.755 -25.97 7.755 -29 7.25 C-29 5.93 -29 4.61 -29 3.25 C-27.87980469 3.11722656 -26.75960937 2.98445313 -25.60546875 2.84765625 C-24.13279271 2.66943431 -22.66013753 2.49103989 -21.1875 2.3125 C-20.44951172 2.22548828 -19.71152344 2.13847656 -18.95117188 2.04882812 C-2.28657682 0.01288212 -2.28657682 0.01288212 0 0 Z " fill="#3A6760" transform="translate(224,110.75)"/>
<path d="M0 0 C2.6875 -0.375 2.6875 -0.375 6 0 C10.44114405 4.04637569 11.69000094 6.90335182 12 13 C12.05755413 16.00240729 12.06127134 18.9977044 12 22 C11.01 22.33 10.02 22.66 9 23 C9.03480469 22.21496094 9.06960937 21.42992188 9.10546875 20.62109375 C9.26835575 14.29952682 9.29545195 9.49241991 6 4 C2.71023192 2.90341064 1.28696233 3.20046862 -2 4 C-1.34 2.68 -0.68 1.36 0 0 Z " fill="#41716C" transform="translate(164,22)"/>
<path d="M0 0 C1 3 1 3 0.07421875 5.04296875 C-0.61220703 6.10451172 -0.61220703 6.10451172 -1.3125 7.1875 C-1.76238281 7.90292969 -2.21226562 8.61835937 -2.67578125 9.35546875 C-3.33126953 10.16951172 -3.33126953 10.16951172 -4 11 C-4.66 11 -5.32 11 -6 11 C-6.10183594 11.51046875 -6.20367187 12.0209375 -6.30859375 12.546875 C-7.25679166 15.91110263 -8.66313572 19.05516367 -10.0625 22.25 C-10.34416016 22.8996875 -10.62582031 23.549375 -10.91601562 24.21875 C-11.6079385 25.81369086 -12.303599 27.40700934 -13 29 C-13.66 28.34 -14.32 27.68 -15 27 C-14.54625 25.989375 -14.0925 24.97875 -13.625 23.9375 C-12.54611292 21.46936107 -11.87711217 19.41907573 -11.3125 16.75 C-9.09143805 10.40410871 -4.74865311 4.74865311 0 0 Z " fill="#3C6E67" transform="translate(160,25)"/>
<path d="M0 0 C2.19629783 3.54143525 2.23275752 6.39667247 2.1953125 10.515625 C2.18886719 11.76601562 2.18242187 13.01640625 2.17578125 14.3046875 C2.15902344 15.60664063 2.14226562 16.90859375 2.125 18.25 C2.11597656 19.56742188 2.10695312 20.88484375 2.09765625 22.2421875 C2.07408533 25.49497462 2.04118022 28.74739589 2 32 C1.34 32 0.68 32 0 32 C-0.1964031 28.70880065 -0.38060745 25.41703066 -0.5625 22.125 C-0.61857422 21.18785156 -0.67464844 20.25070313 -0.73242188 19.28515625 C-0.78076172 18.38925781 -0.82910156 17.49335938 -0.87890625 16.5703125 C-0.9260376 15.74289551 -0.97316895 14.91547852 -1.02172852 14.06298828 C-1 12 -1 12 0 10 C0.06996014 8.29297265 0.08440154 6.58331997 0.0625 4.875 C0.05347656 3.96492187 0.04445312 3.05484375 0.03515625 2.1171875 C0.02355469 1.41851562 0.01195312 0.71984375 0 0 Z " fill="#265E55" transform="translate(146,199)"/>
<path d="M0 0 C0.74056641 0.00451172 1.48113281 0.00902344 2.24414062 0.01367188 C4.05862899 0.02537825 5.87307534 0.04331102 7.6875 0.0625 C8.0175 1.0525 8.3475 2.0425 8.6875 3.0625 C1.7575 3.0625 -5.1725 3.0625 -12.3125 3.0625 C-12.6425 2.4025 -12.9725 1.7425 -13.3125 1.0625 C-8.8746439 -0.04915232 -4.54293614 -0.05277763 0 0 Z " fill="#3A736C" transform="translate(228.3125,111.9375)"/>
<path d="M0 0 C1.34384766 0.07250977 1.34384766 0.07250977 2.71484375 0.14648438 C3.65199219 0.20255859 4.58914062 0.25863281 5.5546875 0.31640625 C6.97201172 0.3947168 6.97201172 0.3947168 8.41796875 0.47460938 C10.7555294 0.60447386 13.09268295 0.73944495 15.4296875 0.87890625 C15.7596875 1.53890625 16.0896875 2.19890625 16.4296875 2.87890625 C8.8396875 2.87890625 1.2496875 2.87890625 -6.5703125 2.87890625 C-6.5703125 2.21890625 -6.5703125 1.55890625 -6.5703125 0.87890625 C-4.11781157 -0.34734422 -2.72720815 -0.1553473 0 0 Z " fill="#1F5F5C" transform="translate(189.5703125,141.12109375)"/>
<path d="M0 0 C-0.33 0.66 -0.66 1.32 -1 2 C-3.64 1.67 -6.28 1.34 -9 1 C-9 2.65 -9 4.3 -9 6 C-9.66 6 -10.32 6 -11 6 C-11.33 8.31 -11.66 10.62 -12 13 C-12.33 13 -12.66 13 -13 13 C-14.33866011 5.81991395 -14.33866011 5.81991395 -12.8125 2.125 C-8.59789532 -2.81626066 -5.99225168 -2.07424097 0 0 Z " fill="#3C6762" transform="translate(109,23)"/>
<path d="M0 0 C0.99 0.66 1.98 1.32 3 2 C0.18565365 5.4113289 -1.16059974 6.88422065 -5.625 7.5 C-9 7 -9 7 -10.9375 5.5 C-11.4634375 4.7575 -11.4634375 4.7575 -12 4 C-11.67 3.01 -11.34 2.02 -11 1 C-10.67 1.99 -10.34 2.98 -10 4 C-7.36 4 -4.72 4 -2 4 C-1.34 2.68 -0.68 1.36 0 0 Z " fill="#3B6D67" transform="translate(138,251)"/>
<path d="M0 0 C0.66 0.66 1.32 1.32 2 2 C5.22378756 4.1491917 7.98414648 5.024994 11.6875 6.125 C13.45673828 6.65480469 13.45673828 6.65480469 15.26171875 7.1953125 C16.16535156 7.46085938 17.06898437 7.72640625 18 8 C18 8.33 18 8.66 18 9 C12.35338286 9.49101019 8.50195162 8.24416457 3.33203125 5.97265625 C1.22409374 5.09346623 -0.77346963 4.48625376 -3 4 C-3 3.34 -3 2.68 -3 2 C-2.01 1.34 -1.02 0.68 0 0 Z " fill="#346159" transform="translate(31,130)"/>
<path d="M0 0 C0.70125 0.495 1.4025 0.99 2.125 1.5 C5.37119719 3.1936681 7.39340156 3.25162315 11 3 C11.66 4.32 12.32 5.64 13 7 C8.72452947 7.34203764 6.40339507 7.21269922 2.5625 5.1875 C1.716875 4.465625 0.87125 3.74375 0 3 C0 2.01 0 1.02 0 0 Z " fill="#406E67" transform="translate(185,234)"/>
<path d="M0 0 C0.66 0 1.32 0 2 0 C2 4.95 2 9.9 2 15 C1.01 14.67 0.02 14.34 -1 14 C-1.33 12.35 -1.66 10.7 -2 9 C-1.34 9 -0.68 9 0 9 C0 6.03 0 3.06 0 0 Z " fill="#386F68" transform="translate(171,47)"/>
<path d="M0 0 C0 0.66 0 1.32 0 2 C-3.06533164 3.53266582 -6.26754272 3.10276471 -9.625 3.0625 C-10.33140625 3.05798828 -11.0378125 3.05347656 -11.765625 3.04882812 C-13.51045275 3.03703875 -15.255237 3.01910324 -17 3 C-14.34932646 0.34932646 -12.75528503 0.61670957 -9.0625 0.375 C-8.00160156 0.30023438 -6.94070312 0.22546875 -5.84765625 0.1484375 C-3.90045323 0.04693721 -1.94984664 0 0 0 Z " fill="#275E59" transform="translate(91,139)"/>
<path d="M0 0 C8.36628849 7.05024311 8.36628849 7.05024311 11 10 C11 10.66 11 11.32 11 12 C11.66 12 12.32 12 13 12 C13.33 12.99 13.66 13.98 14 15 C10.35798155 13.5056292 8.3959346 11.42332178 5.875 8.4375 C3.30529501 5.2525427 3.30529501 5.2525427 0 3 C0 2.01 0 1.02 0 0 Z " fill="#225C56" transform="translate(168,172)"/>
<path d="M0 0 C0.89203125 0.10183594 1.7840625 0.20367187 2.703125 0.30859375 C3.37859375 0.39238281 4.0540625 0.47617187 4.75 0.5625 C4.75 0.8925 4.75 1.2225 4.75 1.5625 C2.77 1.5625 0.79 1.5625 -1.25 1.5625 C-1.58 2.2225 -1.91 2.8825 -2.25 3.5625 C-4.56 3.5625 -6.87 3.5625 -9.25 3.5625 C-9.25 2.5725 -9.25 1.5825 -9.25 0.5625 C-5.98086376 -0.46865279 -3.38958652 -0.4013984 0 0 Z " fill="#3D726C" transform="translate(218.25,58.4375)"/>
<path d="M0 0 C0.98613281 0.20882812 1.97226563 0.41765625 2.98828125 0.6328125 C3.98214844 0.83648437 4.97601563 1.04015625 6 1.25 C6.75925781 1.41757813 7.51851562 1.58515625 8.30078125 1.7578125 C8.30078125 2.0878125 8.30078125 2.4178125 8.30078125 2.7578125 C6.65078125 2.7578125 5.00078125 2.7578125 3.30078125 2.7578125 C2.97078125 3.4178125 2.64078125 4.0778125 2.30078125 4.7578125 C-0.33921875 3.7678125 -2.97921875 2.7778125 -5.69921875 1.7578125 C-2.69921875 -0.2421875 -2.69921875 -0.2421875 0 0 Z " fill="#3C6F67" transform="translate(217.69921875,188.2421875)"/>
<path d="M0 0 C2.31 0 4.62 0 7 0 C4.46963112 3.79555331 2.21925236 4.4455386 -2 6 C-2.99 6 -3.98 6 -5 6 C-4 3 -4 3 -1.9375 1.8125 C-1.298125 1.544375 -0.65875 1.27625 0 1 C0 0.67 0 0.34 0 0 Z " fill="#2F6059" transform="translate(68,179)"/>
<path d="M0 0 C3.64243036 0.59468251 4.77418769 1.68361562 7.0625 4.5 C6.0725 4.995 6.0725 4.995 5.0625 5.5 C5.0625 4.84 5.0625 4.18 5.0625 3.5 C4.0725 3.83 3.0825 4.16 2.0625 4.5 C2.0625 3.84 2.0625 3.18 2.0625 2.5 C-0.5775 3.16 -3.2175 3.82 -5.9375 4.5 C-4.22288215 1.45179049 -3.52623333 0.60020993 0 0 Z " fill="#295750" transform="translate(132.9375,170.5)"/>
<path d="M0 0 C0.66 0.33 1.32 0.66 2 1 C1.34 4.63 0.68 8.26 0 12 C-0.99 12 -1.98 12 -3 12 C-2.69230293 10.18667846 -2.37870936 8.37435655 -2.0625 6.5625 C-1.80146484 5.04849609 -1.80146484 5.04849609 -1.53515625 3.50390625 C-1 1 -1 1 0 0 Z " fill="#23514C" transform="translate(121,188)"/>
<path d="M0 0 C3.37503669 1.1858237 5.64722731 2.27573689 8 5 C7.67 5.99 7.34 6.98 7 8 C6.67 7.34 6.34 6.68 6 6 C2.97065509 5.34227572 2.97065509 5.34227572 0 5 C0 3.35 0 1.7 0 0 Z " fill="#3C6B5F" transform="translate(245,114)"/>
<path d="M0 0 C5.15171623 -0.09038099 9.91913204 0.15318867 15 1 C15 1.33 15 1.66 15 2 C10.05 2.33 5.1 2.66 0 3 C0 2.01 0 1.02 0 0 Z " fill="#060606" transform="translate(792,108)"/>
<path d="M0 0 C-1.45365269 1.17249353 -2.91307419 2.33783816 -4.375 3.5 C-5.18710938 4.1496875 -5.99921875 4.799375 -6.8359375 5.46875 C-9 7 -9 7 -11 7 C-11 6.34 -11 5.68 -11 5 C-9.35 4.34 -7.7 3.68 -6 3 C-6 2.34 -6 1.68 -6 1 C-6.66 0.67 -7.32 0.34 -8 0 C-4.90645403 -0.99435406 -3.09720845 -0.87840996 0 0 Z " fill="#2A5C55" transform="translate(205,98)"/>
<path d="M0 0 C0.99 0 1.98 0 3 0 C3.99 1.98 4.98 3.96 6 6 C5.01 6.66 4.02 7.32 3 8 C1.02 4.535 1.02 4.535 -1 1 C-0.67 0.67 -0.34 0.34 0 0 Z " fill="#36706A" transform="translate(113,31)"/>
<path d="M0 0 C0.33 0.99 0.66 1.98 1 3 C-0.65234375 5.48046875 -0.65234375 5.48046875 -2.9375 8.1875 C-3.68902344 9.08855469 -4.44054687 9.98960937 -5.21484375 10.91796875 C-5.80394531 11.60503906 -6.39304687 12.29210937 -7 13 C-7.33 12.34 -7.66 11.68 -8 11 C-7.67 10.34 -7.34 9.68 -7 9 C-6.34 9 -5.68 9 -5 9 C-4.731875 8.2575 -4.46375 7.515 -4.1875 6.75 C-3.05770579 4.13363446 -1.79106798 2.19812889 0 0 Z " fill="#2D5C55" transform="translate(87,182)"/>
<path d="M0 0 C0.66 0.33 1.32 0.66 2 1 C0.7260411 3.03833424 -0.61061923 5.03852126 -2 7 C-2.66 7 -3.32 7 -4 7 C-4 8.65 -4 10.3 -4 12 C-4.66 12 -5.32 12 -6 12 C-5.5020163 8.26512223 -5.12508244 6.18762365 -3 3 C-2.34 3 -1.68 3 -1 3 C-0.67 2.01 -0.34 1.02 0 0 Z " fill="#34716A" transform="translate(31,173)"/>
<path d="M0 0 C0.33 0 0.66 0 1 0 C1 4.29 1 8.58 1 13 C0.01 13.33 -0.98 13.66 -2 14 C-2 10.95438718 -1.5626816 8.30174598 -1 5.3125 C-0.814375 4.31863281 -0.62875 3.32476562 -0.4375 2.30078125 C-0.2209375 1.16189453 -0.2209375 1.16189453 0 0 Z " fill="#38726D" transform="translate(67,222)"/>
<path d="M0 0 C0.66 0.99 1.32 1.98 2 3 C1.125 5.6875 1.125 5.6875 0 8 C-0.66 8 -1.32 8 -2 8 C-2.33 9.32 -2.66 10.64 -3 12 C-3.08131463 10.56344146 -3.13933559 9.1255517 -3.1875 7.6875 C-3.22230469 6.88699219 -3.25710937 6.08648437 -3.29296875 5.26171875 C-2.93801608 2.52148416 -2.10633718 1.70828921 0 0 Z " fill="#236056" transform="translate(116,182)"/>
<path d="M0 0 C3.3566285 2.23775234 3.57996014 2.93320048 4.6875 6.625 C4.93886719 7.44226563 5.19023438 8.25953125 5.44921875 9.1015625 C5.72185547 10.04128906 5.72185547 10.04128906 6 11 C3 10 3 10 1.83203125 7.93359375 C1.49558594 7.10988281 1.15914063 6.28617187 0.8125 5.4375 C0.46832031 4.61121094 0.12414062 3.78492187 -0.23046875 2.93359375 C-0.48441406 2.29550781 -0.73835938 1.65742187 -1 1 C-0.67 0.67 -0.34 0.34 0 0 Z " fill="#216157" transform="translate(105,98)"/>
<path d="M0 0 C0.66 0.66 1.32 1.32 2 2 C1.8125 5.5 1.8125 5.5 1 9 C0.01 9.66 -0.98 10.32 -2 11 C-1.40049704 7.31733897 -0.75241109 3.65456815 0 0 Z " fill="#376F69" transform="translate(143,235)"/>
<path d="M0 0 C0 0.66 0 1.32 0 2 C-0.66 2 -1.32 2 -2 2 C-2.433125 2.928125 -2.433125 2.928125 -2.875 3.875 C-4 6 -4 6 -6 8 C-6.33 6.35 -6.66 4.7 -7 3 C-3.375 0 -3.375 0 0 0 Z " fill="#2C6058" transform="translate(105,209)"/>
<path d="M0 0 C4.455 0.99 4.455 0.99 9 2 C7.68 2.33 6.36 2.66 5 3 C5 3.66 5 4.32 5 5 C2.525 4.01 2.525 4.01 0 3 C0 2.01 0 1.02 0 0 Z " fill="#36706B" transform="translate(173,137)"/>
<path d="M0 0 C5.28 0.66 10.56 1.32 16 2 C16 2.33 16 2.66 16 3 C14.0085944 3.38133299 12.00720923 3.71325582 10 4 C9.67 3.67 9.34 3.34 9 3 C6.9412232 2.72046781 4.88271568 2.55265649 2.8125 2.37890625 C1.9153125 2.19134766 1.9153125 2.19134766 1 2 C0.67 1.34 0.34 0.68 0 0 Z " fill="#265754" transform="translate(176,147)"/>
<path d="M0 0 C2.97 0.33 5.94 0.66 9 1 C9 1.66 9 2.32 9 3 C6 4 6 4 2 4 C1.34 3.67 0.68 3.34 0 3 C0 2.01 0 1.02 0 0 Z " fill="#26625A" transform="translate(69,113)"/>
<path d="M0 0 C0.33 0 0.66 0 1 0 C1.24954005 1.43410368 1.47392642 2.87260072 1.6875 4.3125 C1.87892578 5.51326172 1.87892578 5.51326172 2.07421875 6.73828125 C2 9 2 9 0.51953125 10.79296875 C0.01808594 11.19128906 -0.48335937 11.58960937 -1 12 C-1.02712066 10.56260487 -1.04645067 9.12506137 -1.0625 7.6875 C-1.07410156 6.88699219 -1.08570312 6.08648437 -1.09765625 5.26171875 C-1 3 -1 3 0 0 Z " fill="#326F68" transform="translate(129,73)"/>
<path d="M0 0 C0.763125 0.20625 1.52625 0.4125 2.3125 0.625 C0.6625 1.945 -0.9875 3.265 -2.6875 4.625 C-3.6775 3.635 -4.6675 2.645 -5.6875 1.625 C-2.6875 -0.375 -2.6875 -0.375 0 0 Z " fill="#3B7069" transform="translate(24.6875,112.375)"/>
<path d="M0 0 C1.65 0.33 3.3 0.66 5 1 C4.67 1.99 4.34 2.98 4 4 C2.35 4 0.7 4 -1 4 C-0.67 2.68 -0.34 1.36 0 0 Z " fill="#256759" transform="translate(150,98)"/>
<path d="M0 0 C7.50769231 0.61538462 7.50769231 0.61538462 10 2.5625 C10.33 3.036875 10.66 3.51125 11 4 C6.44262737 3.56179109 3.42346555 3.14958831 0 0 Z " fill="#3D6B64" transform="translate(183,176)"/>
<path d="M0 0 C0.99 0.33 1.98 0.66 3 1 C3 1.66 3 2.32 3 3 C2.34 3 1.68 3 1 3 C0.67 2.01 0.34 1.02 0 0 Z " fill="#001515" transform="translate(173,174)"/>
<path d="M0 0 C0.66 0 1.32 0 2 0 C2 0.66 2 1.32 2 2 C1.34 2 0.68 2 0 2 C0 1.34 0 0.68 0 0 Z " fill="#000000" transform="translate(187,111)"/>
<path d="M0 0 C0.99 0.495 0.99 0.495 2 1 C1.01 1.495 1.01 1.495 0 2 C0 1.34 0 0.68 0 0 Z " fill="#000000" transform="translate(171,172)"/>
<path d="M0 0 C0.99 0.495 0.99 0.495 2 1 C1.01 1.495 1.01 1.495 0 2 C0 1.34 0 0.68 0 0 Z " fill="#000000" transform="translate(93,170)"/>
<path d="" fill="#000000" transform="translate(0,0)"/>
<path d="" fill="#000000" transform="translate(0,0)"/>
<path d="M0 0 C2 1 2 1 2 1 Z " fill="#000000" transform="translate(169,171)"/>
<path d="" fill="#000000" transform="translate(0,0)"/>
<path d="M0 0 C2 1 2 1 2 1 Z " fill="#000000" transform="translate(96,167)"/>
<path d="" fill="#004040" transform="translate(0,0)"/>
<path d="M0 0 C2 1 2 1 2 1 Z " fill="#004040" transform="translate(99,164)"/>
<path d="M0 0 C2 1 2 1 2 1 Z " fill="#000000" transform="translate(179,143)"/>
<path d="M0 0 C2 1 2 1 2 1 Z " fill="#004040" transform="translate(93,120)"/>
<path d="M0 0 C2 1 2 1 2 1 Z " fill="#000000" transform="translate(174,118)"/>
<path d="" fill="#000000" transform="translate(0,0)"/>
<path d="" fill="#000000" transform="translate(0,0)"/>
<path d="M0 0 C2 1 2 1 2 1 Z " fill="#000000" transform="translate(104,93)"/>
<path d="" fill="#000000" transform="translate(0,0)"/>
<path d="" fill="#000000" transform="translate(0,0)"/>
<path d="" fill="#000000" transform="translate(0,0)"/>
<path d="" fill="#008080" transform="translate(0,0)"/>
<path d="" fill="#000000" transform="translate(0,0)"/>
<path d="" fill="#008080" transform="translate(0,0)"/>
<path d="" fill="#808080" transform="translate(0,0)"/>
<path d="" fill="#000000" transform="translate(0,0)"/>
<path d="" fill="#000000" transform="translate(0,0)"/>
<path d="" fill="#008080" transform="translate(0,0)"/>
<path d="" fill="#000000" transform="translate(0,0)"/>
<path d="" fill="#000000" transform="translate(0,0)"/>
<path d="" fill="#000000" transform="translate(0,0)"/>
<path d="" fill="#000000" transform="translate(0,0)"/>
<path d="" fill="#000000" transform="translate(0,0)"/>
<path d="" fill="#000000" transform="translate(0,0)"/>
<path d="" fill="#000000" transform="translate(0,0)"/>
<path d="" fill="#000000" transform="translate(0,0)"/>
<path d="" fill="#808080" transform="translate(0,0)"/>
<path d="" fill="#000000" transform="translate(0,0)"/>
<path d="" fill="#000000" transform="translate(0,0)"/>
<path d="" fill="#000000" transform="translate(0,0)"/>
<path d="" fill="#000000" transform="translate(0,0)"/>
<path d="" fill="#000000" transform="translate(0,0)"/>
<path d="" fill="#000000" transform="translate(0,0)"/>
<path d="" fill="#000000" transform="translate(0,0)"/>
<path d="" fill="#000000" transform="translate(0,0)"/>
<path d="" fill="#000000" transform="translate(0,0)"/>
<path d="" fill="#000000" transform="translate(0,0)"/>
</svg>
